
<svg id="walls" data-name="walls" xmlns="http://www.w3.org/2000/svg" width="8401" height="1201" >
  <defs>
    <style>
      .default {
        fill: rgba(000,20,20,.33);
        stroke: #0fd;
        stroke-linejoin: round;
      }
      .rearwalls .default {
      }
    </style>
  </defs>
  <title>walls</title>
  <g id="Rooms-5">
    <g id="RearWalls-5" class="rearwalls">
      <rect class="default" x="4069.25" y="581.75" width="37.5" height="37.5"/>
      <rect class="default" x="4106.75" y="581.75" width="37.5" height="37.5"/>
      <rect class="default" x="4144.25" y="581.75" width="37.5" height="37.5"/>
      <rect class="default" x="4181.75" y="581.75" width="37.5" height="37.5"/>
      <rect class="default" x="4219.25" y="581.75" width="37.5" height="37.5"/>
      <rect class="default" x="4256.75" y="581.75" width="37.5" height="37.5"/>
      <rect class="default" x="4294.25" y="581.75" width="37.5" height="37.5"/>
    </g>
    <g id="Cielings-5" class="cielings">
      <polygon class="default" points="3938 563 4069.25 581.75 4106.75 581.75 4013 563 3938 563"/>
      <polygon class="default" points="4463 563 4331.75 581.75 4294.25 581.75 4388 563 4463 563"/>
      <polygon class="default" points="4256.75 581.75 4313 563 4388 563 4294.25 581.75 4256.75 581.75"/>
      <polygon class="default" points="4013 563 4106.75 581.75 4144.25 581.75 4088 563 4013 563"/>
      <polygon class="default" points="4219.25 581.75 4256.75 581.75 4313 563 4238 563 4219.25 581.75"/>
      <polygon class="default" points="4181.75 581.75 4144.25 581.75 4088 563 4163 563 4181.75 581.75"/>
      <polygon class="default" points="4238 563 4219.25 581.75 4181.75 581.75 4163 563 4238 563"/>
    </g>
    <g id="Floors-5" class="floors">
      <polygon class="default" points="4388 638 4463 638 4331.75 619.25 4294.25 619.25 4388 638"/>
      <polygon class="default" points="4013 638 3938 638 4069.25 619.25 4106.75 619.25 4013 638"/>
      <polygon class="default" points="4256.75 619.25 4313 638 4388 638 4294.25 619.25 4256.75 619.25"/>
      <polygon class="default" points="4106.75 619.25 4013 638 4088 638 4144.25 619.25 4106.75 619.25"/>
      <polygon class="default" points="4219.25 619.25 4238 638 4313 638 4256.75 619.25 4219.25 619.25"/>
      <polygon class="default" points="4163 638 4088 638 4144.25 619.25 4181.75 619.25 4163 638"/>
      <polygon class="default" points="4219.25 619.25 4238 638 4163 638 4181.75 619.25 4219.25 619.25"/>
    </g>
    <g id="SideWalls-5" class="sidewalls">
      <polygon id="W-8" class="default" points="4331.75 619.25 4463 638 4463 563 4331.75 581.75 4331.75 619.25"/>
      <polygon id="W-1" class="default" points="4069.25 619.25 3938 638 3938 563 4069.25 581.75 4069.25 619.25"/>
      <polygon id="W-7" class="default" points="4294.25 581.75 4388 563 4388 638 4294.25 619.25 4294.25 581.75"/>
      <polygon id="W-2" class="default" points="4013 638 4106.75 619.25 4106.75 581.75 4013 563 4013 638"/>
      <polygon id="W-6" class="default" points="4313 638 4313 563 4256.75 581.75 4256.75 619.25 4313 638"/>
      <polygon id="W-3" class="default" points="4088 638 4088 563 4144.25 581.75 4144.25 619.25 4088 638"/>
      <polygon id="W-5" class="default" points="4219.25 581.75 4238 563 4238 638 4219.25 619.25 4219.25 581.75"/>
      <polygon id="W-4" class="default" points="4181.75 581.75 4181.75 619.25 4163 638 4163 563 4181.75 581.75"/>
    </g>
  </g>
  <g id="Rooms-4">
    <g id="RearWalls-4" class="rearwalls">
      <rect class="default" x="3938" y="563" width="75" height="75"/>
      <rect class="default" x="4013" y="563" width="75" height="75"/>
      <rect class="default" x="4088" y="563" width="75" height="75"/>
      <rect class="default" x="4163" y="563" width="75" height="75"/>
      <rect class="default" x="4238" y="563" width="75" height="75"/>
      <rect class="default" x="4313" y="563" width="75" height="75"/>
      <rect class="default" x="4388" y="563" width="75" height="75"/>
    </g>
    <g id="Cielings-4" class="cielings">
      <polygon class="default" points="3675.5 525.5 3938 563 4013 563 3825.5 525.5 3675.5 525.5"/>
      <polygon class="default" points="4725.5 525.5 4463 563 4388 563 4575.5 525.5 4725.5 525.5"/>
      <polygon class="default" points="4313 563 4425.5 525.5 4575.5 525.5 4388 563 4313 563"/>
      <polygon class="default" points="3825.5 525.5 4013 563 4088 563 3975.5 525.5 3825.5 525.5"/>
      <polygon class="default" points="4238 563 4313 563 4425.5 525.5 4275.5 525.5 4238 563"/>
      <polygon class="default" points="4163 563 4088 563 3975.5 525.5 4125.5 525.5 4163 563"/>
      <polygon class="default" points="4275.5 525.5 4238 563 4163 563 4125.5 525.5 4275.5 525.5"/>
    </g>
    <g id="Floors-4" class="floors">
      <polygon class="default" points="4575.5 675.5 4725.5 675.5 4463 638 4388 638 4575.5 675.5"/>
      <polygon class="default" points="3825.5 675.5 3675.5 675.5 3938 638 4013 638 3825.5 675.5"/>
      <polygon class="default" points="4313 638 4425.5 675.5 4575.5 675.5 4388 638 4313 638"/>
      <polygon class="default" points="4013 638 3825.5 675.5 3975.5 675.5 4088 638 4013 638"/>
      <polygon class="default" points="4238 638 4275.5 675.5 4425.5 675.5 4313 638 4238 638"/>
      <polygon class="default" points="4125.5 675.5 3975.5 675.5 4088 638 4163 638 4125.5 675.5"/>
      <polygon class="default" points="4238 638 4275.5 675.5 4125.5 675.5 4163 638 4238 638"/>
    </g>
    <g id="SideWalls-4" class="sidewalls">
      <polygon id="W-8-2" data-name="W-8" class="default" points="4463 638 4725.5 675.5 4725.5 525.5 4463 563 4463 638"/>
      <polygon id="W-1-2" data-name="W-1" class="default" points="3938 638 3675.5 675.5 3675.5 525.5 3938 563 3938 638"/>
      <polygon id="W-7-2" data-name="W-7" class="default" points="4388 563 4575.5 525.5 4575.5 675.5 4388 638 4388 563"/>
      <polygon id="W-2-2" data-name="W-2" class="default" points="3825.5 675.5 4013 638 4013 563 3825.5 525.5 3825.5 675.5"/>
      <polygon id="W-6-2" data-name="W-6" class="default" points="4425.5 675.5 4425.5 525.5 4313 563 4313 638 4425.5 675.5"/>
      <polygon id="W-3-2" data-name="W-3" class="default" points="3975.5 675.5 3975.5 525.5 4088 563 4088 638 3975.5 675.5"/>
      <polygon id="W-5-2" data-name="W-5" class="default" points="4238 563 4275.5 525.5 4275.5 675.5 4238 638 4238 563"/>
      <polygon id="W-4-2" data-name="W-4" class="default" points="4163 563 4163 638 4125.5 675.5 4125.5 525.5 4163 563"/>
    </g>
  </g>
  <g id="Rooms-3">
    <g id="RearWalls-3" class="rearwalls">
      <rect class="default" x="3675.5" y="525.5" width="150" height="150"/>
      <rect class="default" x="3825.5" y="525.5" width="150" height="150"/>
      <rect class="default" x="3975.5" y="525.5" width="150" height="150"/>
      <rect class="default" x="4125.5" y="525.5" width="150" height="150"/>
      <rect class="default" x="4275.5" y="525.5" width="150" height="150"/>
      <rect class="default" x="4425.5" y="525.5" width="150" height="150"/>
      <rect class="default" x="4575.5" y="525.5" width="150" height="150"/>
    </g>
    <g id="Cielings-3" class="cielings">
      <polygon class="default" points="3150.5 450.5 3675.5 525.5 3825.5 525.5 3450.5 450.5 3150.5 450.5"/>
      <polygon class="default" points="5250.5 450.5 4725.5 525.5 4575.5 525.5 4950.5 450.5 5250.5 450.5"/>
      <polygon class="default" points="4425.5 525.5 4650.5 450.5 4950.5 450.5 4575.5 525.5 4425.5 525.5"/>
      <polygon class="default" points="3450.5 450.5 3825.5 525.5 3975.5 525.5 3750.5 450.5 3450.5 450.5"/>
      <polygon class="default" points="4275.5 525.5 4425.5 525.5 4650.5 450.5 4350.5 450.5 4275.5 525.5"/>
      <polygon class="default" points="4125.5 525.5 3975.5 525.5 3750.5 450.5 4050.5 450.5 4125.5 525.5"/>
      <polygon class="default" points="4350.5 450.5 4275.5 525.5 4125.5 525.5 4050.5 450.5 4350.5 450.5"/>
    </g>
    <g id="Floors-3" class="floors">
      <polygon class="default" points="4950.5 750.5 5250.5 750.5 4725.5 675.5 4575.5 675.5 4950.5 750.5"/>
      <polygon class="default" points="3450.5 750.5 3150.5 750.5 3675.5 675.5 3825.5 675.5 3450.5 750.5"/>
      <polygon class="default" points="4425.5 675.5 4650.5 750.5 4950.5 750.5 4575.5 675.5 4425.5 675.5"/>
      <polygon class="default" points="3825.5 675.5 3450.5 750.5 3750.5 750.5 3975.5 675.5 3825.5 675.5"/>
      <polygon class="default" points="4275.5 675.5 4350.5 750.5 4650.5 750.5 4425.5 675.5 4275.5 675.5"/>
      <polygon class="default" points="4050.5 750.5 3750.5 750.5 3975.5 675.5 4125.5 675.5 4050.5 750.5"/>
      <polygon class="default" points="4275.5 675.5 4350.5 750.5 4050.5 750.5 4125.5 675.5 4275.5 675.5"/>
    </g>
    <g id="SideWalls-3" class="sidewalls">
      <polygon id="W-8-3" data-name="W-8" class="default" points="4725.5 675.5 5250.5 750.5 5250.5 450.5 4725.5 525.5 4725.5 675.5"/>
      <polygon id="W-1-3" data-name="W-1" class="default" points="3675.5 675.5 3150.5 750.5 3150.5 450.5 3675.5 525.5 3675.5 675.5"/>
      <polygon id="W-7-3" data-name="W-7" class="default" points="4575.5 525.5 4950.5 450.5 4950.5 750.5 4575.5 675.5 4575.5 525.5"/>
      <polygon id="W-2-3" data-name="W-2" class="default" points="3450.5 750.5 3825.5 675.5 3825.5 525.5 3450.5 450.5 3450.5 750.5"/>
      <polygon id="W-6-3" data-name="W-6" class="default" points="4650.5 750.5 4650.5 450.5 4425.5 525.5 4425.5 675.5 4650.5 750.5"/>
      <polygon id="W-3-3" data-name="W-3" class="default" points="3750.5 750.5 3750.5 450.5 3975.5 525.5 3975.5 675.5 3750.5 750.5"/>
      <polygon id="W-5-3" data-name="W-5" class="default" points="4275.5 525.5 4350.5 450.5 4350.5 750.5 4275.5 675.5 4275.5 525.5"/>
      <polygon id="W-4-3" data-name="W-4" class="default" points="4125.5 525.5 4125.5 675.5 4050.5 750.5 4050.5 450.5 4125.5 525.5"/>
    </g>
  </g>
  <g id="Rooms-2">
    <g id="RearWalls-2" class="rearwalls">
      <rect class="default" x="3150.5" y="450.5" width="300" height="300"/>
      <rect class="default" x="3450.5" y="450.5" width="300" height="300"/>
      <rect class="default" x="3750.5" y="450.5" width="300" height="300"/>
      <rect class="default" x="4050.5" y="450.5" width="300" height="300"/>
      <rect class="default" x="4350.5" y="450.5" width="300" height="300"/>
      <rect class="default" x="4650.5" y="450.5" width="300" height="300"/>
      <rect class="default" x="4950.5" y="450.5" width="300" height="300"/>
    </g>
    <g id="Cielings-2" class="cielings">
      <polygon class="default" points="2100.5 300.5 3150.5 450.5 3450.5 450.5 2700.5 300.5 2100.5 300.5"/>
      <polygon class="default" points="6300.5 300.5 5250.5 450.5 4950.5 450.5 5700.5 300.5 6300.5 300.5"/>
      <polygon class="default" points="4650.5 450.5 5100.5 300.5 5700.5 300.5 4950.5 450.5 4650.5 450.5"/>
      <polygon class="default" points="2700.5 300.5 3450.5 450.5 3750.5 450.5 3300.5 300.5 2700.5 300.5"/>
      <polygon class="default" points="4350.5 450.5 4650.5 450.5 5100.5 300.5 4500.5 300.5 4350.5 450.5"/>
      <polygon class="default" points="4050.5 450.5 3750.5 450.5 3300.5 300.5 3900.5 300.5 4050.5 450.5"/>
      <polygon class="default" points="4500.5 300.5 4350.5 450.5 4050.5 450.5 3900.5 300.5 4500.5 300.5"/>
    </g>
    <g id="Floors-2" class="floors">
      <polygon class="default" points="5700.5 900.5 6300.5 900.5 5250.5 750.5 4950.5 750.5 5700.5 900.5"/>
      <polygon class="default" points="2700.5 900.5 2100.5 900.5 3150.5 750.5 3450.5 750.5 2700.5 900.5"/>
      <polygon class="default" points="4650.5 750.5 5100.5 900.5 5700.5 900.5 4950.5 750.5 4650.5 750.5"/>
      <polygon class="default" points="3450.5 750.5 2700.5 900.5 3300.5 900.5 3750.5 750.5 3450.5 750.5"/>
      <polygon class="default" points="4350.5 750.5 4500.5 900.5 5100.5 900.5 4650.5 750.5 4350.5 750.5"/>
      <polygon class="default" points="3900.5 900.5 3300.5 900.5 3750.5 750.5 4050.5 750.5 3900.5 900.5"/>
      <polygon class="default" points="4350.5 750.5 4500.5 900.5 3900.5 900.5 4050.5 750.5 4350.5 750.5"/>
    </g>
    <g id="SideWalls-2" class="sidewalls">
      <polygon id="W-8-4" data-name="W-8" class="default" points="5250.5 750.5 6300.5 900.5 6300.5 300.5 5250.5 450.5 5250.5 750.5"/>
      <polygon id="W-1-4" data-name="W-1" class="default" points="3150.5 750.5 2100.5 900.5 2100.5 300.5 3150.5 450.5 3150.5 750.5"/>
      <polygon id="W-7-4" data-name="W-7" class="default" points="4950.5 450.5 5700.5 300.5 5700.5 900.5 4950.5 750.5 4950.5 450.5"/>
      <polygon id="W-2-4" data-name="W-2" class="default" points="2700.5 900.5 3450.5 750.5 3450.5 450.5 2700.5 300.5 2700.5 900.5"/>
      <polygon id="W-6-4" data-name="W-6" class="default" points="5100.5 900.5 5100.5 300.5 4650.5 450.5 4650.5 750.5 5100.5 900.5"/>
      <polygon id="W-3-4" data-name="W-3" class="default" points="3300.5 900.5 3300.5 300.5 3750.5 450.5 3750.5 750.5 3300.5 900.5"/>
      <polygon id="W-5-4" data-name="W-5" class="default" points="4350.5 450.5 4500.5 300.5 4500.5 900.5 4350.5 750.5 4350.5 450.5"/>
      <polygon id="W-4-4" data-name="W-4" class="default" points="4050.5 450.5 4050.5 750.5 3900.5 900.5 3900.5 300.5 4050.5 450.5"/>
    </g>
  </g>
  <g id="Rooms-1">
    <g id="RearWalls-1" class="rearwalls">
      <rect class="default" x="2100.5" y="300.5" width="600" height="600"/>
      <rect class="default" x="2700.5" y="300.5" width="600" height="600"/>
      <rect class="default" x="3300.5" y="300.5" width="600" height="600"/>
      <rect class="default" x="3900.5" y="300.5" width="600" height="600"/>
      <rect class="default" x="4500.5" y="300.5" width="600" height="600"/>
      <rect class="default" x="5100.5" y="300.5" width="600" height="600"/>
      <rect class="default" x="5700.5" y="300.5" width="600" height="600"/>
    </g>
    <g id="Cielings-1" class="cielings">
      <polygon class="default" points="0.5 0.5 2100.5 300.5 2700.5 300.5 1200.5 0.5 0.5 0.5"/>
      <polygon class="default" points="8400.5 0.5 6300.5 300.5 5700.5 300.5 7200.5 0.5 8400.5 0.5"/>
      <polygon class="default" points="5100.5 300.5 6000.5 0.5 7200.5 0.5 5700.5 300.5 5100.5 300.5"/>
      <polygon class="default" points="1200.5 0.5 2700.5 300.5 3300.5 300.5 2400.5 0.5 1200.5 0.5"/>
      <polygon class="default" points="4500.5 300.5 5100.5 300.5 6000.5 0.5 4800.5 0.5 4500.5 300.5"/>
      <polygon class="default" points="3900.5 300.5 3300.5 300.5 2400.5 0.5 3600.5 0.5 3900.5 300.5"/>
      <polygon class="default" points="4800.5 0.5 4500.5 300.5 3900.5 300.5 3600.5 0.5 4800.5 0.5"/>
    </g>
    <g id="Floors-1" class="floors">
      <polygon class="default" points="7200.5 1200.5 8400.5 1200.5 6300.5 900.5 5700.5 900.5 7200.5 1200.5"/>
      <polygon class="default" points="1200.5 1200.5 0.5 1200.5 2100.5 900.5 2700.5 900.5 1200.5 1200.5"/>
      <polygon class="default" points="5100.5 900.5 6000.5 1200.5 7200.5 1200.5 5700.5 900.5 5100.5 900.5"/>
      <polygon class="default" points="2700.5 900.5 1200.5 1200.5 2400.5 1200.5 3300.5 900.5 2700.5 900.5"/>
      <polygon class="default" points="4500.5 900.5 4800.5 1200.5 6000.5 1200.5 5100.5 900.5 4500.5 900.5"/>
      <polygon class="default" points="3600.5 1200.5 2400.5 1200.5 3300.5 900.5 3900.5 900.5 3600.5 1200.5"/>
      <polygon class="default" points="4500.5 900.5 4800.5 1200.5 3600.5 1200.5 3900.5 900.5 4500.5 900.5"/>
    </g>
    <g id="SideWalls-1" class="sidewalls">
      <polygon id="W-8-5" data-name="W-8" class="default" points="6300.5 900.5 8400.5 1200.5 8400.5 0.5 6300.5 300.5 6300.5 900.5"/>
      <polygon id="W-1-5" data-name="W-1" class="default" points="2100.5 900.5 0.5 1200.5 0.5 0.5 2100.5 300.5 2100.5 900.5"/>
      <polygon id="W-7-5" data-name="W-7" class="default" points="5700.5 300.5 7200.5 0.5 7200.5 1200.5 5700.5 900.5 5700.5 300.5"/>
      <polygon id="W-2-5" data-name="W-2" class="default" points="1200.5 1200.5 2700.5 900.5 2700.5 300.5 1200.5 0.5 1200.5 1200.5"/>
      <polygon id="W-6-5" data-name="W-6" class="default" points="6000.5 1200.5 6000.5 0.5 5100.5 300.5 5100.5 900.5 6000.5 1200.5"/>
      <polygon id="W-3-5" data-name="W-3" class="default" points="2400.5 1200.5 2400.5 0.5 3300.5 300.5 3300.5 900.5 2400.5 1200.5"/>
      <polygon id="W-5-5" data-name="W-5" class="default" points="4500.5 300.5 4800.5 0.5 4800.5 1200.5 4500.5 900.5 4500.5 300.5"/>
      <polygon id="W-4-5" data-name="W-4" class="default" points="3900.5 300.5 3900.5 900.5 3600.5 1200.5 3600.5 0.5 3900.5 300.5"/>
    </g>
  </g>
</svg>