<?xml version="1.0" encoding="utf-8"?>
<!-- Generator: Adobe Illustrator 19.2.0, SVG Export Plug-In . SVG Version: 6.00 Build 0)  -->
<svg version="1.1" xmlns="http://www.w3.org/2000/svg" xmlns:xlink="http://www.w3.org/1999/xlink" x="0px" y="0px"
	 viewBox="0 0 8401 1201" style="enable-background:new 0 0 8401 1201;" xml:space="preserve">
<style type="text/css">
	.st0{fill:none;stroke:#76C043;stroke-linejoin:round;}
	.st1{fill:none;stroke:#231F20;stroke-linejoin:round;}
</style>
<g id="Layer_1">
	<g id="vanishing">
		<line class="st0" x1="3900.5" y1="300.5" x2="4500.5" y2="900.5"/>
		<line class="st0" x1="4500.5" y1="300.5" x2="3900.5" y2="900.5"/>
		<line class="st0" x1="5100.5" y1="300.5" x2="3300.5" y2="900.5"/>
		<line class="st0" x1="5700.5" y1="300.5" x2="2700.5" y2="900.5"/>
		<line class="st0" x1="6306.3" y1="299.3" x2="2100.5" y2="900.5"/>
		<line class="st0" x1="3000.5" y1="600.5" x2="4800.5" y2="1200.5"/>
		<line class="st0" x1="3000.5" y1="600.5" x2="6000.5" y2="1200.5"/>
		<line class="st0" x1="3000.5" y1="600.5" x2="7200.5" y2="1200.5"/>
		<line class="st0" x1="3000.5" y1="600.5" x2="8400.5" y2="1200.5"/>
		<line class="st0" x1="5400.5" y1="600.5" x2="2400.5" y2="1200.5"/>
		<line class="st0" x1="5400.5" y1="600.5" x2="1200.5" y2="1200.5"/>
		<line class="st0" x1="5400.5" y1="600.5" x2="0.5" y2="1200.5"/>
		<line class="st0" x1="5400.5" y1="600.5" x2="3600.5" y2="1200.5"/>
		<line class="st0" x1="4100.5" y1="700.5" x2="6300.5" y2="900.5"/>
		<line class="st0" x1="4300.5" y1="700.5" x2="2100.5" y2="900.5"/>
		<line class="st1" x1="6531.3" y1="3677.5" x2="6531.3" y2="3377.5"/>
		<line class="st1" x1="6560.5" y1="3677.5" x2="6560.5" y2="3577.5"/>
		<line class="st1" x1="6589.7" y1="3677.5" x2="6589.7" y2="3627.5"/>
		<line class="st1" x1="6618.9" y1="3677.5" x2="6618.9" y2="3647.5"/>
		<line class="st1" x1="6648.1" y1="3677.5" x2="6648.1" y2="3657.5"/>
		<line class="st0" x1="5600.5" y1="800.5" x2="3000.5" y2="600.5"/>
		<line class="st0" x1="2800.5" y1="800.5" x2="5400.5" y2="600.5"/>
	</g>
	<g id="walls">
		<g id="arcade-0">
			<g id="RearWalls-1_2_">
				<rect x="2100.5" y="300.5" class="st1" width="600" height="600"/>
				<rect x="2700.5" y="300.5" class="st1" width="600" height="600"/>
				<rect x="3300.5" y="300.5" class="st1" width="600" height="600"/>
				<rect x="3900.5" y="300.5" class="st1" width="600" height="600"/>
				<rect x="4500.5" y="300.5" class="st1" width="600" height="600"/>
				<rect x="5100.5" y="300.5" class="st1" width="600" height="600"/>
				<rect x="5700.5" y="300.5" class="st1" width="600" height="600"/>
			</g>
			<g id="Cielings-1_2_">
				<polygon class="st1" points="0.5,0.5 2100.5,300.5 2700.5,300.5 1200.5,0.5 				"/>
				<polygon class="st1" points="8400.5,0.5 6300.5,300.5 5700.5,300.5 7200.5,0.5 				"/>
				<polygon class="st1" points="5100.5,300.5 6000.5,0.5 7200.5,0.5 5700.5,300.5 				"/>
				<polygon class="st1" points="1200.5,0.5 2700.5,300.5 3300.5,300.5 2400.5,0.5 				"/>
				<polygon class="st1" points="4500.5,300.5 5100.5,300.5 6000.5,0.5 4800.5,0.5 				"/>
				<polygon class="st1" points="3900.5,300.5 3300.5,300.5 2400.5,0.5 3600.5,0.5 				"/>
				<polygon class="st1" points="4800.5,0.5 4500.5,300.5 3900.5,300.5 3600.5,0.5 				"/>
			</g>
			<g id="Floors-1_2_">
				<polygon class="st1" points="7200.5,1200.5 8400.5,1200.5 6300.5,900.5 5700.5,900.5 				"/>
				<polygon class="st1" points="1200.5,1200.5 0.5,1200.5 2100.5,900.5 2700.5,900.5 				"/>
				<polygon class="st1" points="5100.5,900.5 6000.5,1200.5 7200.5,1200.5 5700.5,900.5 				"/>
				<polygon class="st1" points="2700.5,900.5 1200.5,1200.5 2400.5,1200.5 3300.5,900.5 				"/>
				<polygon class="st1" points="4500.5,900.5 4800.5,1200.5 6000.5,1200.5 5100.5,900.5 				"/>
				<polygon class="st1" points="3600.5,1200.5 2400.5,1200.5 3300.5,900.5 3900.5,900.5 				"/>
				<polygon class="st1" points="4500.5,900.5 4800.5,1200.5 3600.5,1200.5 3900.5,900.5 				"/>
			</g>
			<g id="SideWalls-1_2_">
				<polygon id="W-8-5_2_" class="st1" points="6300.5,900.5 8400.5,1200.5 8400.5,0.5 6300.5,300.5 				"/>
				<polygon id="W-1-5_2_" class="st1" points="2100.5,900.5 0.5,1200.5 0.5,0.5 2100.5,300.5 				"/>
				<polygon id="W-7-5_2_" class="st1" points="5700.5,300.5 7200.5,0.5 7200.5,1200.5 5700.5,900.5 				"/>
				<polygon id="W-2-5_2_" class="st1" points="1200.5,1200.5 2700.5,900.5 2700.5,300.5 1200.5,0.5 				"/>
				<polygon id="W-6-5_2_" class="st1" points="6000.5,1200.5 6000.5,0.5 5100.5,300.5 5100.5,900.5 				"/>
				<polygon id="W-3-5_2_" class="st1" points="2400.5,1200.5 2400.5,0.5 3300.5,300.5 3300.5,900.5 				"/>
				<polygon id="W-5-5_2_" class="st1" points="4500.5,300.5 4800.5,0.5 4800.5,1200.5 4500.5,900.5 				"/>
				<polygon id="W-4-5_2_" class="st1" points="3900.5,300.5 3900.5,900.5 3600.5,1200.5 3600.5,0.5 				"/>
			</g>
		</g>
		<g id="arcade-1">
			<g id="RearWalls-1_1_">
				<rect x="2800.5" y="400.5" class="st1" width="400" height="400"/>
				<rect x="3200.5" y="400.5" class="st1" width="400" height="400"/>
				<rect x="3600.5" y="400.5" class="st1" width="400" height="400"/>
				<rect x="4000.5" y="400.5" class="st1" width="400" height="400"/>
				<rect x="4400.5" y="400.5" class="st1" width="400" height="400"/>
				<rect x="4800.5" y="400.5" class="st1" width="400" height="400"/>
				<rect x="5200.5" y="400.5" class="st1" width="400" height="400"/>
			</g>
			<g id="Cielings-1_1_">
				<polygon class="st1" points="2100.5,300.5 2800.5,400.5 3200.5,400.5 2700.5,300.5 				"/>
				<polygon class="st1" points="6300.5,300.5 5600.5,400.5 5200.5,400.5 5700.5,300.5 				"/>
				<polygon class="st1" points="4800.5,400.5 5100.5,300.5 5700.5,300.5 5200.5,400.5 				"/>
				<polygon class="st1" points="2700.5,300.5 3200.5,400.5 3600.5,400.5 3300.5,300.5 				"/>
				<polygon class="st1" points="4400.5,400.5 4800.5,400.5 5100.5,300.5 4500.5,300.5 				"/>
				<polygon class="st1" points="4000.5,400.5 3600.5,400.5 3300.5,300.5 3900.5,300.5 				"/>
				<polygon class="st1" points="4500.5,300.5 4400.5,400.5 4000.5,400.5 3900.5,300.5 				"/>
			</g>
			<g id="Floors-1_1_">
				<polygon class="st1" points="5700.5,900.5 6300.5,900.5 5600.5,800.5 5200.5,800.5 				"/>
				<polygon class="st1" points="2700.5,900.5 2100.5,900.5 2800.5,800.5 3200.5,800.5 				"/>
				<polygon class="st1" points="4800.5,800.5 5100.5,900.5 5700.5,900.5 5200.5,800.5 				"/>
				<polygon class="st1" points="3200.5,800.5 2700.5,900.5 3300.5,900.5 3600.5,800.5 				"/>
				<polygon class="st1" points="4400.5,800.5 4500.5,900.5 5100.5,900.5 4800.5,800.5 				"/>
				<polygon class="st1" points="3900.5,900.5 3300.5,900.5 3600.5,800.5 4000.5,800.5 				"/>
				<polygon class="st1" points="4400.5,800.5 4500.5,900.5 3900.5,900.5 4000.5,800.5 				"/>
			</g>
			<g id="SideWalls-1_1_">
				<polygon id="W-8-5_1_" class="st1" points="5600.5,800.5 6300.5,900.5 6300.5,300.5 5600.5,400.5 				"/>
				<polygon id="W-1-5_1_" class="st1" points="2800.5,800.5 2100.5,900.5 2100.5,300.5 2800.5,400.5 				"/>
				<polygon id="W-7-5_1_" class="st1" points="5200.5,400.5 5700.5,300.5 5700.5,900.5 5200.5,800.5 				"/>
				<polygon id="W-2-5_1_" class="st1" points="2700.5,900.5 3200.5,800.5 3200.5,400.5 2700.5,300.5 				"/>
				<polygon id="W-6-5_1_" class="st1" points="5100.5,900.5 5100.5,300.5 4800.5,400.5 4800.5,800.5 				"/>
				<polygon id="W-3-5_1_" class="st1" points="3300.5,900.5 3300.5,300.5 3600.5,400.5 3600.5,800.5 				"/>
				<polygon id="W-5-5_1_" class="st1" points="4400.5,400.5 4500.5,300.5 4500.5,900.5 4400.5,800.5 				"/>
				<polygon id="W-4-5_1_" class="st1" points="4000.5,400.5 4000.5,800.5 3900.5,900.5 3900.5,300.5 				"/>
			</g>
		</g>
		<line class="st1" x1="4050.5" y1="750.5" x2="4350.5" y2="750.5"/>
		<line class="st1" x1="4080.5" y1="720.5" x2="4320.5" y2="720.5"/>
		<line class="st1" x1="4300.5" y1="700.5" x2="4100.5" y2="700.5"/>
		<rect x="4050.5" y="450.5" class="st1" width="300" height="300"/>
		<rect x="4080.5" y="480.5" class="st1" width="240" height="240"/>
		<rect x="4100.5" y="500.5" class="st1" width="200" height="200"/>
		<rect x="4114.8" y="514.8" class="st1" width="171.4" height="171.4"/>
		<rect x="3600.5" y="0.5" class="st1" width="1200" height="1200"/>
		<rect x="3900.5" y="300.5" class="st1" width="600" height="600"/>
		<rect x="4000.5" y="400.5" class="st1" width="400" height="400"/>
		<rect x="4125.5" y="525.5" class="st1" width="150" height="150"/>
		<rect x="4133.8" y="533.8" class="st1" width="133.3" height="133.3"/>
		<rect x="4140.5" y="540.5" class="st1" width="120" height="120"/>
	</g>
	<g id="Layer_4">
	</g>
	<g id="Layer_3">
		<title>walls</title>
		<g id="Rooms-5">
			<g id="RearWalls-5">
				<rect x="4068.7" y="-1344.2" class="st1" width="37.5" height="37.5"/>
				<rect x="4106.3" y="-1344.2" class="st1" width="37.5" height="37.5"/>
				<rect x="4143.7" y="-1344.2" class="st1" width="37.5" height="37.5"/>
				<rect x="4181.3" y="-1344.2" class="st1" width="37.5" height="37.5"/>
				<rect x="4218.7" y="-1344.2" class="st1" width="37.5" height="37.5"/>
				<rect x="4256.3" y="-1344.2" class="st1" width="37.5" height="37.5"/>
				<rect x="4293.7" y="-1344.2" class="st1" width="37.5" height="37.5"/>
			</g>
			<g id="Cielings-5">
				<polygon class="st1" points="3937.5,-1363 4068.7,-1344.2 4106.3,-1344.2 4012.5,-1363 				"/>
				<polygon class="st1" points="4462.5,-1363 4331.3,-1344.2 4293.7,-1344.2 4387.5,-1363 				"/>
				<polygon class="st1" points="4256.3,-1344.2 4312.5,-1363 4387.5,-1363 4293.7,-1344.2 				"/>
				<polygon class="st1" points="4012.5,-1363 4106.3,-1344.2 4143.7,-1344.2 4087.5,-1363 				"/>
				<polygon class="st1" points="4218.7,-1344.2 4256.3,-1344.2 4312.5,-1363 4237.5,-1363 				"/>
				<polygon class="st1" points="4181.3,-1344.2 4143.7,-1344.2 4087.5,-1363 4162.5,-1363 				"/>
				<polygon class="st1" points="4237.5,-1363 4218.7,-1344.2 4181.3,-1344.2 4162.5,-1363 				"/>
			</g>
			<g id="Floors-5">
				<polygon class="st1" points="4387.5,-1288 4462.5,-1288 4331.3,-1306.8 4293.7,-1306.8 				"/>
				<polygon class="st1" points="4012.5,-1288 3937.5,-1288 4068.7,-1306.8 4106.3,-1306.8 				"/>
				<polygon class="st1" points="4256.3,-1306.8 4312.5,-1288 4387.5,-1288 4293.7,-1306.8 				"/>
				<polygon class="st1" points="4106.3,-1306.8 4012.5,-1288 4087.5,-1288 4143.7,-1306.8 				"/>
				<polygon class="st1" points="4218.7,-1306.8 4237.5,-1288 4312.5,-1288 4256.3,-1306.8 				"/>
				<polygon class="st1" points="4162.5,-1288 4087.5,-1288 4143.7,-1306.8 4181.3,-1306.8 				"/>
				<polygon class="st1" points="4218.7,-1306.8 4237.5,-1288 4162.5,-1288 4181.3,-1306.8 				"/>
			</g>
			<g id="SideWalls-5">
				<polygon id="W-8" class="st1" points="4331.3,-1306.8 4462.5,-1288 4462.5,-1363 4331.3,-1344.2 				"/>
				<polygon id="W-1" class="st1" points="4068.7,-1306.8 3937.5,-1288 3937.5,-1363 4068.7,-1344.2 				"/>
				<polygon id="W-7" class="st1" points="4293.7,-1344.2 4387.5,-1363 4387.5,-1288 4293.7,-1306.8 				"/>
				<polygon id="W-2" class="st1" points="4012.5,-1288 4106.3,-1306.8 4106.3,-1344.2 4012.5,-1363 				"/>
				<polygon id="W-6" class="st1" points="4312.5,-1288 4312.5,-1363 4256.3,-1344.2 4256.3,-1306.8 				"/>
				<polygon id="W-3" class="st1" points="4087.5,-1288 4087.5,-1363 4143.7,-1344.2 4143.7,-1306.8 				"/>
				<polygon id="W-5" class="st1" points="4218.7,-1344.2 4237.5,-1363 4237.5,-1288 4218.7,-1306.8 				"/>
				<polygon id="W-4" class="st1" points="4181.3,-1344.2 4181.3,-1306.8 4162.5,-1288 4162.5,-1363 				"/>
			</g>
		</g>
		<g id="Rooms-4">
			<g id="RearWalls-4">
				<rect x="3937.5" y="-1363" class="st1" width="75" height="75"/>
				<rect x="4012.5" y="-1363" class="st1" width="75" height="75"/>
				<rect x="4087.5" y="-1363" class="st1" width="75" height="75"/>
				<rect x="4162.5" y="-1363" class="st1" width="75" height="75"/>
				<rect x="4237.5" y="-1363" class="st1" width="75" height="75"/>
				<rect x="4312.5" y="-1363" class="st1" width="75" height="75"/>
				<rect x="4387.5" y="-1363" class="st1" width="75" height="75"/>
			</g>
			<g id="Cielings-4">
				<polygon class="st1" points="3675,-1400.5 3937.5,-1363 4012.5,-1363 3825,-1400.5 				"/>
				<polygon class="st1" points="4725,-1400.5 4462.5,-1363 4387.5,-1363 4575,-1400.5 				"/>
				<polygon class="st1" points="4312.5,-1363 4425,-1400.5 4575,-1400.5 4387.5,-1363 				"/>
				<polygon class="st1" points="3825,-1400.5 4012.5,-1363 4087.5,-1363 3975,-1400.5 				"/>
				<polygon class="st1" points="4237.5,-1363 4312.5,-1363 4425,-1400.5 4275,-1400.5 				"/>
				<polygon class="st1" points="4162.5,-1363 4087.5,-1363 3975,-1400.5 4125,-1400.5 				"/>
				<polygon class="st1" points="4275,-1400.5 4237.5,-1363 4162.5,-1363 4125,-1400.5 				"/>
			</g>
			<g id="Floors-4">
				<polygon class="st1" points="4575,-1250.5 4725,-1250.5 4462.5,-1288 4387.5,-1288 				"/>
				<polygon class="st1" points="3825,-1250.5 3675,-1250.5 3937.5,-1288 4012.5,-1288 				"/>
				<polygon class="st1" points="4312.5,-1288 4425,-1250.5 4575,-1250.5 4387.5,-1288 				"/>
				<polygon class="st1" points="4012.5,-1288 3825,-1250.5 3975,-1250.5 4087.5,-1288 				"/>
				<polygon class="st1" points="4237.5,-1288 4275,-1250.5 4425,-1250.5 4312.5,-1288 				"/>
				<polygon class="st1" points="4125,-1250.5 3975,-1250.5 4087.5,-1288 4162.5,-1288 				"/>
				<polygon class="st1" points="4237.5,-1288 4275,-1250.5 4125,-1250.5 4162.5,-1288 				"/>
			</g>
			<g id="SideWalls-4">
				<polygon id="W-8-2" class="st1" points="4462.5,-1288 4725,-1250.5 4725,-1400.5 4462.5,-1363 				"/>
				<polygon id="W-1-2" class="st1" points="3937.5,-1288 3675,-1250.5 3675,-1400.5 3937.5,-1363 				"/>
				<polygon id="W-7-2" class="st1" points="4387.5,-1363 4575,-1400.5 4575,-1250.5 4387.5,-1288 				"/>
				<polygon id="W-2-2" class="st1" points="3825,-1250.5 4012.5,-1288 4012.5,-1363 3825,-1400.5 				"/>
				<polygon id="W-6-2" class="st1" points="4425,-1250.5 4425,-1400.5 4312.5,-1363 4312.5,-1288 				"/>
				<polygon id="W-3-2" class="st1" points="3975,-1250.5 3975,-1400.5 4087.5,-1363 4087.5,-1288 				"/>
				<polygon id="W-5-2" class="st1" points="4237.5,-1363 4275,-1400.5 4275,-1250.5 4237.5,-1288 				"/>
				<polygon id="W-4-2" class="st1" points="4162.5,-1363 4162.5,-1288 4125,-1250.5 4125,-1400.5 				"/>
			</g>
		</g>
		<g id="Rooms-3">
			<g id="RearWalls-3">
				<rect x="3675" y="-1400.5" class="st1" width="150" height="150"/>
				<rect x="3825" y="-1400.5" class="st1" width="150" height="150"/>
				<rect x="3975" y="-1400.5" class="st1" width="150" height="150"/>
				<rect x="4125" y="-1400.5" class="st1" width="150" height="150"/>
				<rect x="4275" y="-1400.5" class="st1" width="150" height="150"/>
				<rect x="4425" y="-1400.5" class="st1" width="150" height="150"/>
				<rect x="4575" y="-1400.5" class="st1" width="150" height="150"/>
			</g>
			<g id="Cielings-3">
				<polygon class="st1" points="3150,-1475.5 3675,-1400.5 3825,-1400.5 3450,-1475.5 				"/>
				<polygon class="st1" points="5250,-1475.5 4725,-1400.5 4575,-1400.5 4950,-1475.5 				"/>
				<polygon class="st1" points="4425,-1400.5 4650,-1475.5 4950,-1475.5 4575,-1400.5 				"/>
				<polygon class="st1" points="3450,-1475.5 3825,-1400.5 3975,-1400.5 3750,-1475.5 				"/>
				<polygon class="st1" points="4275,-1400.5 4425,-1400.5 4650,-1475.5 4350,-1475.5 				"/>
				<polygon class="st1" points="4125,-1400.5 3975,-1400.5 3750,-1475.5 4050,-1475.5 				"/>
				<polygon class="st1" points="4350,-1475.5 4275,-1400.5 4125,-1400.5 4050,-1475.5 				"/>
			</g>
			<g id="Floors-3">
				<polygon class="st1" points="4950,-1175.5 5250,-1175.5 4725,-1250.5 4575,-1250.5 				"/>
				<polygon class="st1" points="3450,-1175.5 3150,-1175.5 3675,-1250.5 3825,-1250.5 				"/>
				<polygon class="st1" points="4425,-1250.5 4650,-1175.5 4950,-1175.5 4575,-1250.5 				"/>
				<polygon class="st1" points="3825,-1250.5 3450,-1175.5 3750,-1175.5 3975,-1250.5 				"/>
				<polygon class="st1" points="4275,-1250.5 4350,-1175.5 4650,-1175.5 4425,-1250.5 				"/>
				<polygon class="st1" points="4050,-1175.5 3750,-1175.5 3975,-1250.5 4125,-1250.5 				"/>
				<polygon class="st1" points="4275,-1250.5 4350,-1175.5 4050,-1175.5 4125,-1250.5 				"/>
			</g>
			<g id="SideWalls-3">
				<polygon id="W-8-3" class="st1" points="4725,-1250.5 5250,-1175.5 5250,-1475.5 4725,-1400.5 				"/>
				<polygon id="W-1-3" class="st1" points="3675,-1250.5 3150,-1175.5 3150,-1475.5 3675,-1400.5 				"/>
				<polygon id="W-7-3" class="st1" points="4575,-1400.5 4950,-1475.5 4950,-1175.5 4575,-1250.5 				"/>
				<polygon id="W-2-3" class="st1" points="3450,-1175.5 3825,-1250.5 3825,-1400.5 3450,-1475.5 				"/>
				<polygon id="W-6-3" class="st1" points="4650,-1175.5 4650,-1475.5 4425,-1400.5 4425,-1250.5 				"/>
				<polygon id="W-3-3" class="st1" points="3750,-1175.5 3750,-1475.5 3975,-1400.5 3975,-1250.5 				"/>
				<polygon id="W-5-3" class="st1" points="4275,-1400.5 4350,-1475.5 4350,-1175.5 4275,-1250.5 				"/>
				<polygon id="W-4-3" class="st1" points="4125,-1400.5 4125,-1250.5 4050,-1175.5 4050,-1475.5 				"/>
			</g>
		</g>
		<g id="Rooms-2">
			<g id="RearWalls-2">
				<rect x="3150" y="-1475.5" class="st1" width="300" height="300"/>
				<rect x="3450" y="-1475.5" class="st1" width="300" height="300"/>
				<rect x="3750" y="-1475.5" class="st1" width="300" height="300"/>
				<rect x="4050" y="-1475.5" class="st1" width="300" height="300"/>
				<rect x="4350" y="-1475.5" class="st1" width="300" height="300"/>
				<rect x="4650" y="-1475.5" class="st1" width="300" height="300"/>
				<rect x="4950" y="-1475.5" class="st1" width="300" height="300"/>
			</g>
			<g id="Cielings-2">
				<polygon class="st1" points="2100,-1625.5 3150,-1475.5 3450,-1475.5 2700,-1625.5 				"/>
				<polygon class="st1" points="6300,-1625.5 5250,-1475.5 4950,-1475.5 5700,-1625.5 				"/>
				<polygon class="st1" points="4650,-1475.5 5100,-1625.5 5700,-1625.5 4950,-1475.5 				"/>
				<polygon class="st1" points="2700,-1625.5 3450,-1475.5 3750,-1475.5 3300,-1625.5 				"/>
				<polygon class="st1" points="4350,-1475.5 4650,-1475.5 5100,-1625.5 4500,-1625.5 				"/>
				<polygon class="st1" points="4050,-1475.5 3750,-1475.5 3300,-1625.5 3900,-1625.5 				"/>
				<polygon class="st1" points="4500,-1625.5 4350,-1475.5 4050,-1475.5 3900,-1625.5 				"/>
			</g>
			<g id="Floors-2">
				<polygon class="st1" points="5700,-1025.5 6300,-1025.5 5250,-1175.5 4950,-1175.5 				"/>
				<polygon class="st1" points="2700,-1025.5 2100,-1025.5 3150,-1175.5 3450,-1175.5 				"/>
				<polygon class="st1" points="4650,-1175.5 5100,-1025.5 5700,-1025.5 4950,-1175.5 				"/>
				<polygon class="st1" points="3450,-1175.5 2700,-1025.5 3300,-1025.5 3750,-1175.5 				"/>
				<polygon class="st1" points="4350,-1175.5 4500,-1025.5 5100,-1025.5 4650,-1175.5 				"/>
				<polygon class="st1" points="3900,-1025.5 3300,-1025.5 3750,-1175.5 4050,-1175.5 				"/>
				<polygon class="st1" points="4350,-1175.5 4500,-1025.5 3900,-1025.5 4050,-1175.5 				"/>
			</g>
			<g id="SideWalls-2">
				<polygon id="W-8-4" class="st1" points="5250,-1175.5 6300,-1025.5 6300,-1625.5 5250,-1475.5 				"/>
				<polygon id="W-1-4" class="st1" points="3150,-1175.5 2100,-1025.5 2100,-1625.5 3150,-1475.5 				"/>
				<polygon id="W-7-4" class="st1" points="4950,-1475.5 5700,-1625.5 5700,-1025.5 4950,-1175.5 				"/>
				<polygon id="W-2-4" class="st1" points="2700,-1025.5 3450,-1175.5 3450,-1475.5 2700,-1625.5 				"/>
				<polygon id="W-6-4" class="st1" points="5100,-1025.5 5100,-1625.5 4650,-1475.5 4650,-1175.5 				"/>
				<polygon id="W-3-4" class="st1" points="3300,-1025.5 3300,-1625.5 3750,-1475.5 3750,-1175.5 				"/>
				<polygon id="W-5-4" class="st1" points="4350,-1475.5 4500,-1625.5 4500,-1025.5 4350,-1175.5 				"/>
				<polygon id="W-4-4" class="st1" points="4050,-1475.5 4050,-1175.5 3900,-1025.5 3900,-1625.5 				"/>
			</g>
		</g>
		<g id="Rooms-1">
			<g id="RearWalls-1">
				<rect x="2100" y="-1625.5" class="st1" width="600" height="600"/>
				<rect x="2700" y="-1625.5" class="st1" width="600" height="600"/>
				<rect x="3300" y="-1625.5" class="st1" width="600" height="600"/>
				<rect x="3900" y="-1625.5" class="st1" width="600" height="600"/>
				<rect x="4500" y="-1625.5" class="st1" width="600" height="600"/>
				<rect x="5100" y="-1625.5" class="st1" width="600" height="600"/>
				<rect x="5700" y="-1625.5" class="st1" width="600" height="600"/>
			</g>
			<g id="Cielings-1">
				<polygon class="st1" points="0,-1925.5 2100,-1625.5 2700,-1625.5 1200,-1925.5 				"/>
				<polygon class="st1" points="8400,-1925.5 6300,-1625.5 5700,-1625.5 7200,-1925.5 				"/>
				<polygon class="st1" points="5100,-1625.5 6000,-1925.5 7200,-1925.5 5700,-1625.5 				"/>
				<polygon class="st1" points="1200,-1925.5 2700,-1625.5 3300,-1625.5 2400,-1925.5 				"/>
				<polygon class="st1" points="4500,-1625.5 5100,-1625.5 6000,-1925.5 4800,-1925.5 				"/>
				<polygon class="st1" points="3900,-1625.5 3300,-1625.5 2400,-1925.5 3600,-1925.5 				"/>
				<polygon class="st1" points="4800,-1925.5 4500,-1625.5 3900,-1625.5 3600,-1925.5 				"/>
			</g>
			<g id="Floors-1">
				<polygon class="st1" points="7200,-725.5 8400,-725.5 6300,-1025.5 5700,-1025.5 				"/>
				<polygon class="st1" points="1200,-725.5 0,-725.5 2100,-1025.5 2700,-1025.5 				"/>
				<polygon class="st1" points="5100,-1025.5 6000,-725.5 7200,-725.5 5700,-1025.5 				"/>
				<polygon class="st1" points="2700,-1025.5 1200,-725.5 2400,-725.5 3300,-1025.5 				"/>
				<polygon class="st1" points="4500,-1025.5 4800,-725.5 6000,-725.5 5100,-1025.5 				"/>
				<polygon class="st1" points="3600,-725.5 2400,-725.5 3300,-1025.5 3900,-1025.5 				"/>
				<polygon class="st1" points="4500,-1025.5 4800,-725.5 3600,-725.5 3900,-1025.5 				"/>
			</g>
			<g id="SideWalls-1">
				<polygon id="W-8-5" class="st1" points="6300,-1025.5 8400,-725.5 8400,-1925.5 6300,-1625.5 				"/>
				<polygon id="W-1-5" class="st1" points="2100,-1025.5 0,-725.5 0,-1925.5 2100,-1625.5 				"/>
				<polygon id="W-7-5" class="st1" points="5700,-1625.5 7200,-1925.5 7200,-725.5 5700,-1025.5 				"/>
				<polygon id="W-2-5" class="st1" points="1200,-725.5 2700,-1025.5 2700,-1625.5 1200,-1925.5 				"/>
				<polygon id="W-6-5" class="st1" points="6000,-725.5 6000,-1925.5 5100,-1625.5 5100,-1025.5 				"/>
				<polygon id="W-3-5" class="st1" points="2400,-725.5 2400,-1925.5 3300,-1625.5 3300,-1025.5 				"/>
				<polygon id="W-5-5" class="st1" points="4500,-1625.5 4800,-1925.5 4800,-725.5 4500,-1025.5 				"/>
				<polygon id="W-4-5" class="st1" points="3900,-1625.5 3900,-1025.5 3600,-725.5 3600,-1925.5 				"/>
			</g>
		</g>
	</g>
</g>
<g id="Layer_2">
	<rect x="0.5" y="1200.5" class="st1" width="8400.5" height="8400.5"/>
</g>
</svg>
