
<svg id="arcade4" data-name="walls" xmlns="http://www.w3.org/2000/svg" width="8401" height="1201" >
  <defs>
    <style>
      .default {
        fill: rgba(000,20,20,.33);
        stroke: #0fd;
        stroke-width: 1px;
        stroke-linejoin: round;
      }
      .rearwalls .default {
      }
    </style>
  </defs>
  <title>arcade4</title>

  <g id="Rooms-4">
    <g id="RearWalls-4" class="rearwalls">
      <rect class="default" x="4069.25" y="581.75" width="37.5" height="37.5"/>
      <rect class="default" x="4106.75" y="581.75" width="37.5" height="37.5"/>
      <rect class="default" x="4144.25" y="581.75" width="37.5" height="37.5"/>
      <rect class="default" x="4181.75" y="581.75" width="37.5" height="37.5"/>
      <rect class="default" x="4219.25" y="581.75" width="37.5" height="37.5"/>
      <rect class="default" x="4256.75" y="581.75" width="37.5" height="37.5"/>
      <rect class="default" x="4294.25" y="581.75" width="37.5" height="37.5"/>
    </g>
    <g id="Cielings-4" class="cielings">
      <polygon class="default" points="3938 563 4069.25 581.75 4106.75 581.75 4013 563 3938 563"/>
      <polygon class="default" points="4463 563 4331.75 581.75 4294.25 581.75 4388 563 4463 563"/>
      <polygon class="default" points="4256.75 581.75 4313 563 4388 563 4294.25 581.75 4256.75 581.75"/>
      <polygon class="default" points="4013 563 4106.75 581.75 4144.25 581.75 4088 563 4013 563"/>
      <polygon class="default" points="4219.25 581.75 4256.75 581.75 4313 563 4238 563 4219.25 581.75"/>
      <polygon class="default" points="4181.75 581.75 4144.25 581.75 4088 563 4163 563 4181.75 581.75"/>
      <polygon class="default" points="4238 563 4219.25 581.75 4181.75 581.75 4163 563 4238 563"/>
    </g>
    <g id="Floors-4" class="floors">
      <polygon class="default" points="4388 638 4463 638 4331.75 619.25 4294.25 619.25 4388 638"/>
      <polygon class="default" points="4013 638 3938 638 4069.25 619.25 4106.75 619.25 4013 638"/>
      <polygon class="default" points="4256.75 619.25 4313 638 4388 638 4294.25 619.25 4256.75 619.25"/>
      <polygon class="default" points="4106.75 619.25 4013 638 4088 638 4144.25 619.25 4106.75 619.25"/>
      <polygon class="default" points="4219.25 619.25 4238 638 4313 638 4256.75 619.25 4219.25 619.25"/>
      <polygon class="default" points="4163 638 4088 638 4144.25 619.25 4181.75 619.25 4163 638"/>
      <polygon class="default" points="4219.25 619.25 4238 638 4163 638 4181.75 619.25 4219.25 619.25"/>
    </g>
    <g id="SideWalls-4" class="sidewalls">
      <polygon id="W-8" class="default" points="4331.75 619.25 4463 638 4463 563 4331.75 581.75 4331.75 619.25"/>
      <polygon id="W-1" class="default" points="4069.25 619.25 3938 638 3938 563 4069.25 581.75 4069.25 619.25"/>
      <polygon id="W-7" class="default" points="4294.25 581.75 4388 563 4388 638 4294.25 619.25 4294.25 581.75"/>
      <polygon id="W-2" class="default" points="4013 638 4106.75 619.25 4106.75 581.75 4013 563 4013 638"/>
      <polygon id="W-6" class="default" points="4313 638 4313 563 4256.75 581.75 4256.75 619.25 4313 638"/>
      <polygon id="W-3" class="default" points="4088 638 4088 563 4144.25 581.75 4144.25 619.25 4088 638"/>
      <polygon id="W-5" class="default" points="4219.25 581.75 4238 563 4238 638 4219.25 619.25 4219.25 581.75"/>
      <polygon id="W-4" class="default" points="4181.75 581.75 4181.75 619.25 4163 638 4163 563 4181.75 581.75"/>
    </g>
  </g>
</svg>

