
<svg id="arcade0" data-name="walls" xmlns="http://www.w3.org/2000/svg" width="8401" height="1201" >
  <defs>
    <style>
      .default {
        fill: rgba(000,20,20,.33);
        stroke: #0ba;
        stroke-width: 1px;
        stroke-linejoin: round;
      }
      .rearwalls .default {
      }
    </style>
  </defs>
  <title>arcade0</title>

  <g id="Arcade-0">
    <g id="RearWalls-0" class="rearwalls">
      <rect class="default" x="2100.5" y="300.5" width="600" height="600"/>
      <rect class="default" x="2700.5" y="300.5" width="600" height="600"/>
      <rect class="default" x="3300.5" y="300.5" width="600" height="600"/>
      <rect class="default" x="3900.5" y="300.5" width="600" height="600"/>
      <rect class="default" x="4500.5" y="300.5" width="600" height="600"/>
      <rect class="default" x="5100.5" y="300.5" width="600" height="600"/>
      <rect class="default" x="5700.5" y="300.5" width="600" height="600"/>
    </g>
    <g id="Cielings-0" class="cielings">
      <polygon class="default" points="0.5 0.5 2100.5 300.5 2700.5 300.5 1200.5 0.5 0.5 0.5"/>
      <polygon class="default" points="8400.5 0.5 6300.5 300.5 5700.5 300.5 7200.5 0.5 8400.5 0.5"/>
      <polygon class="default" points="5100.5 300.5 6000.5 0.5 7200.5 0.5 5700.5 300.5 5100.5 300.5"/>
      <polygon class="default" points="1200.5 0.5 2700.5 300.5 3300.5 300.5 2400.5 0.5 1200.5 0.5"/>
      <polygon class="default" points="4500.5 300.5 5100.5 300.5 6000.5 0.5 4800.5 0.5 4500.5 300.5"/>
      <polygon class="default" points="3900.5 300.5 3300.5 300.5 2400.5 0.5 3600.5 0.5 3900.5 300.5"/>
      <polygon class="default" points="4800.5 0.5 4500.5 300.5 3900.5 300.5 3600.5 0.5 4800.5 0.5"/>
    </g>
    <g id="Floors-0" class="floors">
      <polygon class="default" points="7200.5 1200.5 8400.5 1200.5 6300.5 900.5 5700.5 900.5 7200.5 1200.5"/>
      <polygon class="default" points="1200.5 1200.5 0.5 1200.5 2100.5 900.5 2700.5 900.5 1200.5 1200.5"/>
      <polygon class="default" points="5100.5 900.5 6000.5 1200.5 7200.5 1200.5 5700.5 900.5 5100.5 900.5"/>
      <polygon class="default" points="2700.5 900.5 1200.5 1200.5 2400.5 1200.5 3300.5 900.5 2700.5 900.5"/>
      <polygon class="default" points="4500.5 900.5 4800.5 1200.5 6000.5 1200.5 5100.5 900.5 4500.5 900.5"/>
      <polygon class="default" points="3600.5 1200.5 2400.5 1200.5 3300.5 900.5 3900.5 900.5 3600.5 1200.5"/>
      <polygon class="default" points="4500.5 900.5 4800.5 1200.5 3600.5 1200.5 3900.5 900.5 4500.5 900.5"/>
    </g>
    <g id="SideWalls-0" class="sidewalls">
      <polygon id="W-8-5" data-name="W-8" class="default" points="6300.5 900.5 8400.5 1200.5 8400.5 0.5 6300.5 300.5 6300.5 900.5"/>
      <polygon id="W-1-5" data-name="W-1" class="default" points="2100.5 900.5 0.5 1200.5 0.5 0.5 2100.5 300.5 2100.5 900.5"/>
      <polygon id="W-7-5" data-name="W-7" class="default" points="5700.5 300.5 7200.5 0.5 7200.5 1200.5 5700.5 900.5 5700.5 300.5"/>
      <polygon id="W-2-5" data-name="W-2" class="default" points="1200.5 1200.5 2700.5 900.5 2700.5 300.5 1200.5 0.5 1200.5 1200.5"/>
      <polygon id="W-6-5" data-name="W-6" class="default" points="6000.5 1200.5 6000.5 0.5 5100.5 300.5 5100.5 900.5 6000.5 1200.5"/>
      <polygon id="W-3-5" data-name="W-3" class="default" points="2400.5 1200.5 2400.5 0.5 3300.5 300.5 3300.5 900.5 2400.5 1200.5"/>
      <polygon id="W-5-5" data-name="W-5" class="default" points="4500.5 300.5 4800.5 0.5 4800.5 1200.5 4500.5 900.5 4500.5 300.5"/>
      <polygon id="W-4-5" data-name="W-4" class="default" points="3900.5 300.5 3900.5 900.5 3600.5 1200.5 3600.5 0.5 3900.5 300.5"/>
    </g>
  </g>
</svg>