
<svg id="arcade1" data-name="walls" xmlns="http://www.w3.org/2000/svg" width="8401" height="1201" >
  <defs>
    <style>
      .default {
        fill: rgba(000,20,20,.33);
        stroke: #0fd;
        stroke-width: 1px;
        stroke-linejoin: round;
      }
      .rearwalls .default {
      }
    </style>
  </defs>
  <title>arcade1</title>

  <g id="Rooms-1">
    <g id="RearWalls-1" class="rearwalls">
      <rect class="default" x="3150.5" y="450.5" width="300" height="300"/>
      <rect class="default" x="3450.5" y="450.5" width="300" height="300"/>
      <rect class="default" x="3750.5" y="450.5" width="300" height="300"/>
      <rect class="default" x="4050.5" y="450.5" width="300" height="300"/>
      <rect class="default" x="4350.5" y="450.5" width="300" height="300"/>
      <rect class="default" x="4650.5" y="450.5" width="300" height="300"/>
      <rect class="default" x="4950.5" y="450.5" width="300" height="300"/>
    </g>
    <g id="Cielings-1" class="cielings">
      <polygon class="default" points="2100.5 300.5 3150.5 450.5 3450.5 450.5 2700.5 300.5 2100.5 300.5"/>
      <polygon class="default" points="6300.5 300.5 5250.5 450.5 4950.5 450.5 5700.5 300.5 6300.5 300.5"/>
      <polygon class="default" points="4650.5 450.5 5100.5 300.5 5700.5 300.5 4950.5 450.5 4650.5 450.5"/>
      <polygon class="default" points="2700.5 300.5 3450.5 450.5 3750.5 450.5 3300.5 300.5 2700.5 300.5"/>
      <polygon class="default" points="4350.5 450.5 4650.5 450.5 5100.5 300.5 4500.5 300.5 4350.5 450.5"/>
      <polygon class="default" points="4050.5 450.5 3750.5 450.5 3300.5 300.5 3900.5 300.5 4050.5 450.5"/>
      <polygon class="default" points="4500.5 300.5 4350.5 450.5 4050.5 450.5 3900.5 300.5 4500.5 300.5"/>
    </g>
    <g id="Floors-1" class="floors">
      <polygon class="default" points="5700.5 900.5 6300.5 900.5 5250.5 750.5 4950.5 750.5 5700.5 900.5"/>
      <polygon class="default" points="2700.5 900.5 2100.5 900.5 3150.5 750.5 3450.5 750.5 2700.5 900.5"/>
      <polygon class="default" points="4650.5 750.5 5100.5 900.5 5700.5 900.5 4950.5 750.5 4650.5 750.5"/>
      <polygon class="default" points="3450.5 750.5 2700.5 900.5 3300.5 900.5 3750.5 750.5 3450.5 750.5"/>
      <polygon class="default" points="4350.5 750.5 4500.5 900.5 5100.5 900.5 4650.5 750.5 4350.5 750.5"/>
      <polygon class="default" points="3900.5 900.5 3300.5 900.5 3750.5 750.5 4050.5 750.5 3900.5 900.5"/>
      <polygon class="default" points="4350.5 750.5 4500.5 900.5 3900.5 900.5 4050.5 750.5 4350.5 750.5"/>
    </g>
    <g id="SideWalls-1" class="sidewalls">
      <polygon id="W-8-4" data-name="W-8" class="default" points="5250.5 750.5 6300.5 900.5 6300.5 300.5 5250.5 450.5 5250.5 750.5"/>
      <polygon id="W-1-4" data-name="W-1" class="default" points="3150.5 750.5 2100.5 900.5 2100.5 300.5 3150.5 450.5 3150.5 750.5"/>
      <polygon id="W-7-4" data-name="W-7" class="default" points="4950.5 450.5 5700.5 300.5 5700.5 900.5 4950.5 750.5 4950.5 450.5"/>
      <polygon id="W-2-4" data-name="W-2" class="default" points="2700.5 900.5 3450.5 750.5 3450.5 450.5 2700.5 300.5 2700.5 900.5"/>
      <polygon id="W-6-4" data-name="W-6" class="default" points="5100.5 900.5 5100.5 300.5 4650.5 450.5 4650.5 750.5 5100.5 900.5"/>
      <polygon id="W-3-4" data-name="W-3" class="default" points="3300.5 900.5 3300.5 300.5 3750.5 450.5 3750.5 750.5 3300.5 900.5"/>
      <polygon id="W-5-4" data-name="W-5" class="default" points="4350.5 450.5 4500.5 300.5 4500.5 900.5 4350.5 750.5 4350.5 450.5"/>
      <polygon id="W-4-4" data-name="W-4" class="default" points="4050.5 450.5 4050.5 750.5 3900.5 900.5 3900.5 300.5 4050.5 450.5"/>
    </g>
  </g>

</svg>