
<svg id="arcade2" data-name="walls" xmlns="http://www.w3.org/2000/svg" width="8401" height="1201" >
  <defs>
    <style>
      .default {
        fill: rgba(000,20,20,.33);
        stroke: #0fd;
        stroke-width: 1px;
        stroke-linejoin: round;
      }
      .rearwalls .default {
      }
    </style>
  </defs>
  <title>arcade2</title>

  <g id="Rooms-2">
    <g id="RearWalls-3" class="rearwalls">
      <rect class="default" x="3675.5" y="525.5" width="150" height="150"/>
      <rect class="default" x="3825.5" y="525.5" width="150" height="150"/>
      <rect class="default" x="3975.5" y="525.5" width="150" height="150"/>
      <rect class="default" x="4125.5" y="525.5" width="150" height="150"/>
      <rect class="default" x="4275.5" y="525.5" width="150" height="150"/>
      <rect class="default" x="4425.5" y="525.5" width="150" height="150"/>
      <rect class="default" x="4575.5" y="525.5" width="150" height="150"/>
    </g>
    <g id="Cielings-2" class="cielings">
      <polygon class="default" points="3150.5 450.5 3675.5 525.5 3825.5 525.5 3450.5 450.5 3150.5 450.5"/>
      <polygon class="default" points="5250.5 450.5 4725.5 525.5 4575.5 525.5 4950.5 450.5 5250.5 450.5"/>
      <polygon class="default" points="4425.5 525.5 4650.5 450.5 4950.5 450.5 4575.5 525.5 4425.5 525.5"/>
      <polygon class="default" points="3450.5 450.5 3825.5 525.5 3975.5 525.5 3750.5 450.5 3450.5 450.5"/>
      <polygon class="default" points="4275.5 525.5 4425.5 525.5 4650.5 450.5 4350.5 450.5 4275.5 525.5"/>
      <polygon class="default" points="4125.5 525.5 3975.5 525.5 3750.5 450.5 4050.5 450.5 4125.5 525.5"/>
      <polygon class="default" points="4350.5 450.5 4275.5 525.5 4125.5 525.5 4050.5 450.5 4350.5 450.5"/>
    </g>
    <g id="Floors-2" class="floors">
      <polygon class="default" points="4950.5 750.5 5250.5 750.5 4725.5 675.5 4575.5 675.5 4950.5 750.5"/>
      <polygon class="default" points="3450.5 750.5 3150.5 750.5 3675.5 675.5 3825.5 675.5 3450.5 750.5"/>
      <polygon class="default" points="4425.5 675.5 4650.5 750.5 4950.5 750.5 4575.5 675.5 4425.5 675.5"/>
      <polygon class="default" points="3825.5 675.5 3450.5 750.5 3750.5 750.5 3975.5 675.5 3825.5 675.5"/>
      <polygon class="default" points="4275.5 675.5 4350.5 750.5 4650.5 750.5 4425.5 675.5 4275.5 675.5"/>
      <polygon class="default" points="4050.5 750.5 3750.5 750.5 3975.5 675.5 4125.5 675.5 4050.5 750.5"/>
      <polygon class="default" points="4275.5 675.5 4350.5 750.5 4050.5 750.5 4125.5 675.5 4275.5 675.5"/>
    </g>
    <g id="SideWalls-2" class="sidewalls">
      <polygon id="W-8-3" data-name="W-8" class="default" points="4725.5 675.5 5250.5 750.5 5250.5 450.5 4725.5 525.5 4725.5 675.5"/>
      <polygon id="W-1-3" data-name="W-1" class="default" points="3675.5 675.5 3150.5 750.5 3150.5 450.5 3675.5 525.5 3675.5 675.5"/>
      <polygon id="W-7-3" data-name="W-7" class="default" points="4575.5 525.5 4950.5 450.5 4950.5 750.5 4575.5 675.5 4575.5 525.5"/>
      <polygon id="W-2-3" data-name="W-2" class="default" points="3450.5 750.5 3825.5 675.5 3825.5 525.5 3450.5 450.5 3450.5 750.5"/>
      <polygon id="W-6-3" data-name="W-6" class="default" points="4650.5 750.5 4650.5 450.5 4425.5 525.5 4425.5 675.5 4650.5 750.5"/>
      <polygon id="W-3-3" data-name="W-3" class="default" points="3750.5 750.5 3750.5 450.5 3975.5 525.5 3975.5 675.5 3750.5 750.5"/>
      <polygon id="W-5-3" data-name="W-5" class="default" points="4275.5 525.5 4350.5 450.5 4350.5 750.5 4275.5 675.5 4275.5 525.5"/>
      <polygon id="W-4-3" data-name="W-4" class="default" points="4125.5 525.5 4125.5 675.5 4050.5 750.5 4050.5 450.5 4125.5 525.5"/>
    </g>
  </g>
</svg>

